<svg width="1024" height="1024" viewBox="0 0 1024 1024" xmlns="http://www.w3.org/2000/svg">
  <!-- Night sky background with stars -->
  <rect width="100%" height="100%" fill="#0a0f1c"/>
  
  <!-- Stars -->
  <g fill="#ffffff" opacity="0.8">
    <circle cx="100" cy="100" r="1"/>
    <circle cx="200" cy="150" r="1.5"/>
    <circle cx="300" cy="200" r="1"/>
    <circle cx="400" cy="120" r="1.2"/>
    <circle cx="500" cy="180" r="1"/>
    <circle cx="600" cy="90" r="1.3"/>
    <circle cx="700" cy="160" r="1"/>
    <circle cx="800" cy="130" r="1.4"/>
    <circle cx="900" cy="170" r="1"/>
  </g>
  
  <!-- Forest silhouettes in layers -->
  <g opacity="0.9">
    <!-- Back layer trees -->
    <path d="M0 400 L1024 400 L1024 1024 L0 1024 Z" fill="#0a1f1a"/>
    <path d="M100 400 L200 200 L300 400 Z" fill="#0a1f1a"/>
    <path d="M400 400 L500 180 L600 400 Z" fill="#0a1f1a"/>
    <path d="M700 400 L800 220 L900 400 Z" fill="#0a1f1a"/>
    
    <!-- Middle layer trees -->
    <path d="M0 600 L1024 600 L1024 1024 L0 1024 Z" fill="#0d2b24"/>
    <path d="M150 600 L250 400 L350 600 Z" fill="#0d2b24"/>
    <path d="M450 600 L550 380 L650 600 Z" fill="#0d2b24"/>
    <path d="M750 600 L850 420 L950 600 Z" fill="#0d2b24"/>
    
    <!-- Front layer trees -->
    <path d="M0 800 L1024 800 L1024 1024 L0 1024 Z" fill="#103b32"/>
    <path d="M50 800 L150 600 L250 800 Z" fill="#103b32"/>
    <path d="M350 800 L450 580 L550 800 Z" fill="#103b32"/>
    <path d="M650 800 L750 620 L850 800 Z" fill="#103b32"/>
  </g>
  
  <!-- Fog effect -->
  <rect width="100%" height="100%" fill="url(#fog)" opacity="0.3"/>
  
  <!-- Gradient definitions -->
  <defs>
    <linearGradient id="fog" x1="0" y1="0" x2="0" y2="1">
      <stop offset="0%" stop-color="#ffffff" stop-opacity="0"/>
      <stop offset="50%" stop-color="#ffffff" stop-opacity="0.1"/>
      <stop offset="100%" stop-color="#ffffff" stop-opacity="0"/>
    </linearGradient>
  </defs>
</svg>